<?xml version="1.0" encoding="utf-8"?>
<svg version="1.1" xmlns:xlink="http://www.w3.org/1999/xlink" width="80px" height="32px" xmlns="http://www.w3.org/2000/svg">
  <g transform="matrix(1 0 0 1 -1196 -280 )">
    <path d="M 1196.5 284  A 3.5 3.5 0 0 1 1200 280.5 L 1272 280.5  A 3.5 3.5 0 0 1 1275.5 284 L 1275.5 308  A 3.5 3.5 0 0 1 1272 311.5 L 1200 311.5  A 3.5 3.5 0 0 1 1196.5 308 L 1196.5 284  Z " fill-rule="nonzero" fill="#0099ff" stroke="none" fill-opacity="0.0980392156862745" />
    <path d="M 1196.5 284  A 3.5 3.5 0 0 1 1200 280.5 L 1272 280.5  A 3.5 3.5 0 0 1 1275.5 284 L 1275.5 308  A 3.5 3.5 0 0 1 1272 311.5 L 1200 311.5  A 3.5 3.5 0 0 1 1196.5 308 L 1196.5 284  Z " stroke-width="1" stroke="#a7d2f9" fill="none" />
  </g>
</svg>