<?xml version="1.0" encoding="utf-8"?>
<svg version="1.1" xmlns:xlink="http://www.w3.org/1999/xlink" width="12px" height="12px" xmlns="http://www.w3.org/2000/svg">
  <g transform="matrix(1 0 0 1 -780 -256 )">
    <path d="M 786 257  C 788.8 257  791 259.2  791 262  C 791 264.8  788.8 267  786 267  C 783.2 267  781 264.8  781 262  C 781 259.2  783.2 257  786 257  Z " fill-rule="nonzero" fill="#ffffff" stroke="none" />
    <path d="M 786 257  C 788.8 257  791 259.2  791 262  C 791 264.8  788.8 267  786 267  C 783.2 267  781 264.8  781 262  C 781 259.2  783.2 257  786 257  Z " stroke-width="2" stroke="#0099ff" fill="none" />
  </g>
</svg>