<?xml version="1.0" encoding="utf-8"?>
<svg version="1.1" xmlns:xlink="http://www.w3.org/1999/xlink" width="80px" height="32px" xmlns="http://www.w3.org/2000/svg">
  <g transform="matrix(1 0 0 1 -1193 -267 )">
    <path d="M 1193.5 271  A 3.5 3.5 0 0 1 1197 267.5 L 1269 267.5  A 3.5 3.5 0 0 1 1272.5 271 L 1272.5 295  A 3.5 3.5 0 0 1 1269 298.5 L 1197 298.5  A 3.5 3.5 0 0 1 1193.5 295 L 1193.5 271  Z " fill-rule="nonzero" fill="#0099ff" stroke="none" fill-opacity="0.0980392156862745" />
    <path d="M 1193.5 271  A 3.5 3.5 0 0 1 1197 267.5 L 1269 267.5  A 3.5 3.5 0 0 1 1272.5 271 L 1272.5 295  A 3.5 3.5 0 0 1 1269 298.5 L 1197 298.5  A 3.5 3.5 0 0 1 1193.5 295 L 1193.5 271  Z " stroke-width="1" stroke="#a7d2f9" fill="none" />
  </g>
</svg>