<?xml version="1.0" encoding="utf-8"?>
<svg version="1.1" xmlns:xlink="http://www.w3.org/1999/xlink" width="80px" height="32px" xmlns="http://www.w3.org/2000/svg">
  <g transform="matrix(1 0 0 1 -1193 -267 )">
    <path d="M 1194 271  A 3 3 0 0 1 1197 268 L 1269 268  A 3 3 0 0 1 1272 271 L 1272 295  A 3 3 0 0 1 1269 298 L 1197 298  A 3 3 0 0 1 1194 295 L 1194 271  Z " fill-rule="nonzero" fill="#67c23a" stroke="none" fill-opacity="0.0980392156862745" />
    <path d="M 1193.5 271  A 3.5 3.5 0 0 1 1197 267.5 L 1269 267.5  A 3.5 3.5 0 0 1 1272.5 271 L 1272.5 295  A 3.5 3.5 0 0 1 1269 298.5 L 1197 298.5  A 3.5 3.5 0 0 1 1193.5 295 L 1193.5 271  Z " stroke-width="1" stroke="#67c23a" fill="none" stroke-opacity="0.2" />
  </g>
</svg>